<svg width="32" height="32" viewBox="0 0 32 32" fill="none" xmlns="http://www.w3.org/2000/svg">
<g clip-path="url(#clip0_2189_40382)">
<rect width="32" height="32" fill="#FFE6F2"/>
<path d="M14.0288 21.1712C14.6458 20.9968 15.292 20.9468 15.9282 21.0247C16.2555 21.0642 16.576 21.148 16.8813 21.2728C17.2013 21.401 17.4969 21.584 17.7544 21.8138C18.0094 22.0549 18.216 22.3435 18.3618 22.6634C18.4934 22.9627 18.5918 23.2758 18.6548 23.597C18.8422 24.557 18.7729 26.0452 20.0249 26.265C20.0901 26.2776 20.1561 26.2873 20.2222 26.2933L20.4272 26.2982C20.568 26.2881 20.7083 26.2686 20.8462 26.2386C21.1317 26.1712 21.4102 26.0753 21.6772 25.9534C21.5614 26.0459 21.4452 26.144 21.3179 26.2298C21.1896 26.3147 21.055 26.3897 20.9155 26.4544C20.6253 26.5966 20.3059 26.669 19.9829 26.6663C19.1082 26.6497 18.4902 25.996 18.1284 25.2571C17.8818 24.7536 17.7111 24.2094 17.4185 23.7298C16.9999 23.0439 16.2835 22.4918 15.4448 22.5941C15.103 22.6371 14.7821 22.7913 14.5923 23.0892C14.0924 23.8676 14.8101 24.958 15.7251 24.804C15.803 24.7921 15.8797 24.7713 15.9526 24.7415C16.0252 24.7105 16.093 24.6689 16.1538 24.6185C16.2817 24.5116 16.3786 24.3718 16.4331 24.2142C16.4933 24.0496 16.506 23.8713 16.4712 23.6995C16.4337 23.5201 16.3285 23.3618 16.1772 23.2591C16.353 23.3417 16.4897 23.4901 16.5591 23.6722C16.6311 23.8595 16.6498 24.0637 16.6128 24.261C16.5768 24.4666 16.4863 24.6591 16.3511 24.8177C16.2794 24.899 16.1965 24.9697 16.105 25.0276C16.014 25.0851 15.9158 25.1312 15.814 25.1653C15.6075 25.2361 15.3878 25.2595 15.1714 25.2327C14.8674 25.1893 14.5808 25.0644 14.3413 24.8714C14.3192 24.8538 14.2991 24.8331 14.2778 24.8148C14.0897 24.6606 13.9202 24.4853 13.7729 24.2913C13.7141 24.2263 13.6548 24.1617 13.5923 24.0999C13.2992 23.7911 12.953 23.5373 12.5708 23.3509C12.3073 23.2347 12.0313 23.1489 11.7485 23.095C11.6063 23.0653 11.4617 23.0438 11.3179 23.0257C11.2511 23.0187 10.9308 22.9478 10.8853 22.9896C11.33 22.5786 11.815 22.2133 12.3325 21.8997C12.8637 21.5833 13.434 21.3383 14.0288 21.1712ZM21.2183 16.0667C22.5766 17.0053 24.731 17.6439 25.4595 19.3948C26.2921 21.3892 25.3391 23.9024 23.3325 24.7347C25.2879 21.4558 20.0673 19.292 21.2183 16.0667ZM8.26807 5.08331L10.7524 7.84113L11.9907 9.22296C12.4017 9.68765 12.813 10.1377 13.2241 10.6263L13.2915 10.7093L13.3071 10.8372C13.3272 11.0107 13.3165 11.1868 13.2769 11.3568C13.2312 11.5325 13.1515 11.6981 13.0425 11.8431C12.8394 12.1075 12.5706 12.3133 12.2632 12.4407C11.9865 12.5604 11.6935 12.6377 11.394 12.6702C11.3291 12.6785 11.2617 12.6838 11.1968 12.6888C11.0071 12.696 10.8247 12.7643 10.6763 12.8831C10.528 13.0019 10.4218 13.1651 10.3726 13.3489C10.35 13.4405 10.3327 13.5336 10.3218 13.6273C10.2922 13.8699 10.2875 14.1227 10.2612 14.428C10.1968 14.9479 10.0469 15.4535 9.81787 15.9241C9.52022 16.5532 9.18687 17.0606 9.26416 17.7855C9.31523 18.2556 9.55478 18.5707 9.87354 18.8958C10.4491 19.4869 11.7375 19.752 11.4497 21.2083C11.2757 22.0774 9.84014 22.9893 7.82275 23.3079C8.02338 23.2773 7.56541 22.502 7.53662 22.4525C7.32044 22.1125 7.08341 21.792 6.91162 21.4232C6.57459 20.7075 6.41901 19.8792 6.55713 19.095C6.70272 18.2696 7.31124 17.6369 7.81689 17.0062C8.41861 16.2559 9.05006 15.273 9.18994 14.2991C9.22283 14.0631 9.24571 13.7669 9.29834 13.473C9.34852 13.1474 9.44996 12.8318 9.59912 12.5384C9.70094 12.3459 9.8352 12.1724 9.99561 12.0257C10.0792 11.9478 10.134 11.8439 10.1519 11.7308C10.1697 11.6176 10.1497 11.5018 10.0942 11.4017L6.87744 5.59308L11.4976 11.3177C11.5502 11.384 11.6172 11.4373 11.6929 11.4749C11.7686 11.5125 11.8516 11.5337 11.936 11.5355C12.0204 11.5373 12.1041 11.52 12.1812 11.4857C12.2584 11.4513 12.327 11.4002 12.3823 11.3362C12.4408 11.2677 12.4739 11.1813 12.4761 11.0911C12.4784 11.0009 12.45 10.9125 12.395 10.8411C12.0932 10.454 11.7745 10.0592 11.4653 9.6712L10.3022 8.22687L7.96826 5.3421L4.78662 1.33331L8.26807 5.08331ZM19.9517 15.428C20.2382 15.7273 20.4468 16.0929 20.5591 16.4925C20.6714 16.8921 20.6837 17.3134 20.5952 17.7191C20.4946 18.1481 20.2777 18.541 19.9683 18.8538C19.6619 19.1568 19.2921 19.3879 18.8862 19.5306C18.4987 19.6671 18.0938 19.7507 17.6841 19.7786C17.2897 19.8116 16.9084 19.8208 16.5337 19.8431C15.7756 19.875 15.0263 20.0238 14.313 20.2835C14.6266 20.0462 14.9699 19.8505 15.3335 19.7015C15.7015 19.5536 16.0833 19.4421 16.4731 19.3704C17.2468 19.2226 18.0128 19.1871 18.6558 18.9271C18.9734 18.8025 19.2656 18.6201 19.5181 18.39C19.7624 18.162 19.9495 17.8793 20.064 17.5648C20.1812 17.2328 20.2286 16.8799 20.2036 16.5286C20.1746 16.1513 20.0899 15.7801 19.9517 15.428ZM18.4175 11.6351C19.7643 13.079 22.5752 12.3466 24.7319 13.6849C27.1526 15.1858 26.7983 18.102 25.9761 19.1751C26.1344 15.396 17.7991 16.3836 18.4175 11.6351ZM13.9761 12.805C14.1973 12.7847 14.4195 12.8272 14.6177 12.928C14.8159 13.0289 14.9817 13.184 15.0962 13.3753C15.6282 14.3156 14.4387 14.6068 13.8804 14.6605C13.0344 14.7429 12.8597 14.253 13.0249 13.638C13.0792 13.418 13.1996 13.2196 13.3696 13.0706C13.5397 12.9216 13.7516 12.8292 13.9761 12.805ZM12.2007 5.91144C12.8665 5.83887 13.5405 5.92149 14.1694 6.15265C14.8039 6.4 15.3837 6.77014 15.8765 7.24152C16.1983 7.54453 16.5012 7.86836 16.7817 8.21027C18.8701 7.79759 20.5642 8.1637 21.8657 8.87531L21.895 8.88995C22.3093 9.1155 22.6971 9.38663 23.0522 9.69757C23.109 9.7471 23.1654 9.79663 23.2173 9.84698C23.4944 10.1026 23.7521 10.3785 23.9888 10.6722L24.0073 10.6966C24.776 11.6739 25.1558 12.69 25.1567 13.306L25.1519 13.2991C25.0766 13.1588 24.9905 13.0242 24.895 12.8968C24.614 12.5146 24.2113 12.2403 23.7534 12.1204C23.4488 12.0415 23.1369 11.9927 22.8228 11.9739C22.5045 11.9508 22.1792 11.9375 21.8511 11.9202C21.1934 11.8838 20.5196 11.8164 19.8618 11.6282C19.6975 11.5812 19.5331 11.5299 19.3745 11.4681C19.2922 11.4384 19.2157 11.4061 19.1343 11.3714C19.0529 11.3367 18.9703 11.2963 18.8882 11.2542C18.579 11.0842 18.2925 10.8756 18.0356 10.6331C17.5291 10.1601 17.1307 9.62295 16.7319 9.10284C16.3561 8.58082 15.9521 8.07968 15.5229 7.60089C15.0994 7.13183 14.5993 6.73875 14.0435 6.43976C13.468 6.1487 12.8426 5.96947 12.2007 5.91144ZM12.3062 6.52277C12.839 6.60037 13.3826 6.81385 13.7329 7.22003C14.083 7.62605 14.2118 8.15402 14.313 8.65656C14.35 8.83208 14.8623 10.2754 14.8862 10.3206C14.961 10.4617 15.0982 10.5885 15.1509 10.7396C15.1603 10.7612 15.1634 10.7854 15.1606 10.8089C15.1579 10.8322 15.1492 10.8546 15.1353 10.8734C14.9494 11.0798 14.4475 10.8506 14.2583 10.7581C13.9315 10.5955 13.6387 10.3713 13.396 10.098C12.559 9.16464 12.1198 7.7696 12.3062 6.52277Z" fill="#E5408F"/>
</g>
<defs>
<clipPath id="clip0_2189_40382">
<rect width="32" height="32" fill="white"/>
</clipPath>
</defs>
</svg>
