<svg width="24" height="24" viewBox="0 0 24 24" fill="none" xmlns="http://www.w3.org/2000/svg">
<path d="M16.2861 3C17.7747 3.00019 19.0861 4.06658 19.5225 5.4043C19.7904 6.22565 20.2996 7.59771 20.8857 9.19238C21.464 10.7655 22.1086 12.5353 22.6348 14.125C22.8693 14.7042 23 15.3367 23 16C23 18.7614 20.7614 21 18 21C15.3247 21 13.1405 18.8989 13.0068 16.2568L13 16V12H11V16L10.9932 16.2568C10.8595 18.8989 8.67528 21 6 21C3.23858 21 1 18.7614 1 16C1 15.3367 1.13069 14.7042 1.36523 14.125C1.89143 12.5353 2.53604 10.7655 3.11426 9.19238C3.70039 7.59771 4.20962 6.22565 4.47754 5.4043C4.91388 4.06658 6.22529 3.00019 7.71387 3C9.52852 3 11 4.47149 11 6.28613V10H13V6.28613C13 4.47149 14.4715 3 16.2861 3ZM6 13C4.34315 13 3 14.3432 3 16C3 17.6568 4.34314 19 6 19C7.65686 19 9 17.6568 9 16C9 14.3432 7.65685 13 6 13ZM18 13C16.3431 13 15 14.3432 15 16C15 17.6568 16.3431 19 18 19C19.6569 19 21 17.6568 21 16C21 14.3432 19.6569 13 18 13ZM7.71387 5C7.16532 5.00021 6.57064 5.43659 6.37891 6.02441C6.09608 6.89146 5.56719 8.31479 4.99121 9.88184C4.83034 10.3195 4.66862 10.7717 4.50293 11.2275C4.97556 11.0794 5.47852 11 6 11C7.12568 11 8.16431 11.3722 9 12V6.28613C9 5.57605 8.42395 5 7.71387 5ZM16.2861 5C15.5761 5 15 5.57605 15 6.28613V12C15.8357 11.3722 16.8743 11 18 11C18.5215 11 19.0244 11.0794 19.4971 11.2275C19.3314 10.7717 19.1697 10.3195 19.0088 9.88184C18.4328 8.31479 17.9039 6.89146 17.6211 6.02441C17.4294 5.43659 16.8347 5.00021 16.2861 5Z" fill="#808085"/>
</svg>
