<svg width="32" height="32" viewBox="0 0 32 32" fill="none" xmlns="http://www.w3.org/2000/svg">
<rect width="32" height="32" fill="#1B1A1C"/>
<path fill-rule="evenodd" clip-rule="evenodd" d="M19.8096 5.14436C20.4598 4.75055 21.2926 5.20781 21.3087 5.96743L21.4068 10.5715L26.1793 11.3938C26.9284 11.5229 27.2568 12.4141 26.7704 12.998L23.5946 16.8103L26.0064 18.7471C26.599 19.2229 26.4539 20.1615 25.7453 20.4365L21.3871 22.1277L21.9213 24.8197C22.0692 25.5649 21.3545 26.1907 20.6348 25.9462L17.5259 24.8895C13.9803 26.6105 9.73228 25.7182 7.17086 22.7982C10.9647 23.893 14.0055 22.7487 15.4488 21.5659C15.8003 21.2779 15.8516 20.7596 15.5634 20.4083C15.2753 20.0571 14.7567 20.0058 14.4053 20.2938C13.2072 21.2756 9.93487 22.5663 5.69889 20.4612C4.01744 16.5324 5.44133 11.8648 9.20304 9.58608C10.8583 8.58341 12.7143 8.19582 14.5046 8.35796L19.8096 5.14436ZM12.756 15.128C11.9787 15.5988 10.9666 15.3507 10.4954 14.5738C10.0243 13.7968 10.2725 12.7853 11.0499 12.3144C11.8273 11.8435 12.8393 12.0916 13.3105 12.8686C13.7816 13.6455 13.5333 14.6571 12.756 15.128Z" fill="#02C076"/>
</svg>
