<svg width="133" height="73" viewBox="0 0 133 73" fill="none" xmlns="http://www.w3.org/2000/svg">
<path d="M31.4772 73C25.0929 73 19.6244 72.0337 15.0719 70.1012C10.5193 68.1688 6.97698 65.5277 4.44479 62.178C1.91261 58.7962 0.457948 54.9473 0.0808144 50.6314L0 50.0033H19.153L19.1934 50.2449C19.6244 51.501 20.3518 52.5961 21.3754 53.5301C22.3991 54.4642 23.719 55.1888 25.3353 55.7042C26.9785 56.1873 28.9181 56.4289 31.1539 56.4289C33.6053 56.4289 35.693 56.0907 37.4171 55.4143C39.168 54.7057 40.5149 53.6912 41.4578 52.3706C42.4006 51.0501 42.872 49.4719 42.872 47.636V47.5394C42.872 45.7357 42.4006 44.2219 41.4578 42.998C40.5419 41.7419 39.2354 40.7756 37.5383 40.0993C35.8412 39.4229 33.8208 39.0847 31.4772 39.0847C29.5646 39.0847 27.854 39.2941 26.3455 39.7128C24.837 40.0993 23.5035 40.6629 22.3452 41.4037C21.7525 41.7902 21.2138 42.2089 20.7289 42.6598C20.244 43.0785 19.8265 43.5294 19.4763 44.0126H1.09099L4.24276 1.64262H57.7015V18.5036H20.0016L18.8702 33.2872H19.3146C20.5538 31.6446 22.0893 30.2597 23.9211 29.1324C25.7798 27.9729 27.8675 27.0871 30.1842 26.4752C32.5009 25.831 35.0196 25.5089 37.7403 25.5089C42.5892 25.5089 46.8185 26.4269 50.4282 28.2627C54.0379 30.0664 56.8395 32.6431 58.8329 35.9927C60.8263 39.3102 61.823 43.2557 61.823 47.8293V47.9259C61.823 53.0148 60.5839 57.4434 58.1055 61.2118C55.6272 64.9801 52.1118 67.895 47.5593 69.9563C43.0067 71.9854 37.646 73 31.4772 73Z" fill="url(#paint0_linear_11259_18948)"/>
<path d="M99.3408 72.8067C92.4985 72.8067 86.5452 71.3252 81.4808 68.362C76.4434 65.3666 72.5374 61.1474 69.7628 55.7042C66.9881 50.261 65.6008 43.8515 65.6008 36.4758V36.3792C65.6008 28.9713 66.9881 22.5458 69.7628 17.1026C72.5374 11.6594 76.4434 7.45621 81.4808 4.49305C86.5452 1.49768 92.4985 0 99.3408 0C106.183 0 112.109 1.49768 117.12 4.49305C122.157 7.45621 126.063 11.6594 128.838 17.1026C131.613 22.5458 133 28.9713 133 36.3792V36.4758C133 43.8515 131.613 50.261 128.838 55.7042C126.063 61.1474 122.157 65.3666 117.12 68.362C112.109 71.3252 106.183 72.8067 99.3408 72.8067ZM99.3408 55.7525C102.035 55.7525 104.365 54.9795 106.331 53.4335C108.298 51.8553 109.806 49.6329 110.857 46.7664C111.934 43.8676 112.473 40.4214 112.473 36.4275V36.3309C112.473 32.3371 111.934 28.9069 110.857 26.0404C109.806 23.1738 108.298 20.9676 106.331 19.4216C104.365 17.8756 102.035 17.1026 99.3408 17.1026C96.647 17.1026 94.3034 17.8756 92.31 19.4216C90.3166 20.9676 88.7811 23.1738 87.7035 26.0404C86.626 28.9069 86.0873 32.3371 86.0873 36.3309V36.4275C86.0873 40.4214 86.626 43.8676 87.7035 46.7664C88.7811 49.6651 90.3166 51.8875 92.31 53.4335C94.3034 54.9795 96.647 55.7525 99.3408 55.7525Z" fill="url(#paint1_linear_11259_18948)"/>
<defs>
<linearGradient id="paint0_linear_11259_18948" x1="66.5" y1="0" x2="66.5" y2="73" gradientUnits="userSpaceOnUse">
<stop stop-color="#D95A00"/>
<stop offset="1" stop-color="#FFD600"/>
</linearGradient>
<linearGradient id="paint1_linear_11259_18948" x1="66.5" y1="0" x2="66.5" y2="73" gradientUnits="userSpaceOnUse">
<stop stop-color="#D95A00"/>
<stop offset="1" stop-color="#FFD600"/>
</linearGradient>
</defs>
</svg>
