<svg width="187" height="27" viewBox="0 0 187 27" fill="none" xmlns="http://www.w3.org/2000/svg">
<path d="M4.57162 26.0543V20.9036H21.1744C22.5597 20.9036 23.6195 20.6684 24.3538 20.198C25.1018 19.7158 25.4759 19.0161 25.4759 18.0989V18.0812C25.4759 17.4697 25.3027 16.9582 24.9564 16.5466C24.61 16.135 24.1044 15.8293 23.4394 15.6294C22.7745 15.4177 21.971 15.3119 21.0289 15.3119H4.57162V10.902H20.1562C21.4723 10.902 22.4905 10.6786 23.2109 10.2317C23.9451 9.77306 24.3122 9.13805 24.3122 8.32663V8.29135C24.3122 7.47994 23.9797 6.85668 23.3148 6.42157C22.6636 5.97471 21.7493 5.75127 20.5718 5.75127H4.57162V0.600558H23.1485C25.2819 0.600558 27.1037 0.85339 28.6137 1.35905C30.1237 1.85296 31.2735 2.56442 32.0632 3.49343C32.8667 4.42244 33.2684 5.5396 33.2684 6.84492V6.8802C33.2684 7.86801 33.0121 8.74998 32.4996 9.52611C32.0008 10.3022 31.2943 10.949 30.38 11.4665C29.4657 11.9721 28.3851 12.3131 27.1383 12.4895V12.6836C28.6899 12.8129 30.0336 13.154 31.1696 13.7067C32.3056 14.2594 33.1784 14.9767 33.7879 15.8587C34.3975 16.7289 34.7022 17.7226 34.7022 18.8397V18.875C34.7022 20.3802 34.252 21.6679 33.3515 22.7381C32.4511 23.8082 31.1558 24.6314 29.4657 25.2076C27.7894 25.772 25.7668 26.0543 23.3979 26.0543H4.57162ZM0 26.0543V0.600558H8.977V26.0543H0Z" fill="url(#paint0_linear_11259_18951)"/>
<path d="M40.7908 26.0543V0.600558H49.8925V20.2685L66.7159 20.2677V26.0535L40.7908 26.0543Z" fill="url(#paint1_linear_11259_18951)"/>
<path d="M70.7057 26.0535L84.1296 0.599741H92.7533V6.47367H89.8441L80.3061 26.0535H70.7057ZM78.1034 20.6734L80.597 15.6285H98.9666L101.419 20.6734H78.1034ZM99.6108 26.0535L90.0727 6.47367V0.599741H95.7664L109.211 26.0535H99.6108Z" fill="url(#paint2_linear_11259_18951)"/>
<path d="M129.991 26.6356C126.168 26.6356 122.864 26.0946 120.079 25.0127C117.308 23.9191 115.168 22.3786 113.658 20.3912C112.162 18.4038 111.414 16.046 111.414 13.3178V13.3001C111.414 10.5719 112.162 8.2141 113.658 6.22672C115.168 4.23935 117.308 2.70471 120.079 1.62283C122.864 0.540943 126.168 0 129.991 0C133.274 0 136.204 0.440986 138.781 1.32296C141.372 2.19317 143.464 3.42205 145.057 5.0096C146.65 6.59715 147.606 8.47281 147.924 10.6366L147.966 10.9012H138.989L138.947 10.7424C138.643 9.71933 138.082 8.84912 137.264 8.13178C136.461 7.41444 135.443 6.86762 134.21 6.49131C132.991 6.10325 131.605 5.90921 130.054 5.90921C128.114 5.90921 126.445 6.20908 125.046 6.80882C123.646 7.40857 122.573 8.26114 121.825 9.36654C121.077 10.4719 120.703 11.7773 120.703 13.2825V13.3178C120.703 14.8348 121.077 16.146 121.825 17.2514C122.573 18.3568 123.646 19.2152 125.046 19.8267C126.459 20.4265 128.135 20.7263 130.074 20.7263C131.612 20.7263 132.991 20.5382 134.21 20.1619C135.429 19.7856 136.44 19.2387 137.244 18.5214C138.061 17.7923 138.629 16.9221 138.947 15.9108L138.989 15.7344H147.966L147.924 15.9813C147.606 18.1569 146.65 20.0443 145.057 21.6436C143.464 23.2311 141.379 24.46 138.802 25.3302C136.225 26.2004 133.288 26.6356 129.991 26.6356Z" fill="url(#paint3_linear_11259_18951)"/>
<path d="M161.891 19.1572L161.808 11.1666H162.743L175.488 0.600558H186.439L172.239 12.1897L169.725 13.3892L161.891 19.1572ZM153.413 26.0543V0.600558H162.514V26.0543H153.413ZM175.716 26.0543L164.613 14.3946L171.595 10.2141L187 26.0543H175.716Z" fill="url(#paint4_linear_11259_18951)"/>
<defs>
<linearGradient id="paint0_linear_11259_18951" x1="187" y1="27" x2="7.51433e-08" y2="-5.20437e-07" gradientUnits="userSpaceOnUse">
<stop stop-color="#DADADA"/>
<stop offset="1" stop-color="#191919"/>
</linearGradient>
<linearGradient id="paint1_linear_11259_18951" x1="187" y1="27" x2="7.51433e-08" y2="-5.20437e-07" gradientUnits="userSpaceOnUse">
<stop stop-color="#DADADA"/>
<stop offset="1" stop-color="#191919"/>
</linearGradient>
<linearGradient id="paint2_linear_11259_18951" x1="187" y1="27" x2="7.51433e-08" y2="-5.20437e-07" gradientUnits="userSpaceOnUse">
<stop stop-color="#DADADA"/>
<stop offset="1" stop-color="#191919"/>
</linearGradient>
<linearGradient id="paint3_linear_11259_18951" x1="187" y1="27" x2="7.51433e-08" y2="-5.20437e-07" gradientUnits="userSpaceOnUse">
<stop stop-color="#DADADA"/>
<stop offset="1" stop-color="#191919"/>
</linearGradient>
<linearGradient id="paint4_linear_11259_18951" x1="187" y1="27" x2="7.51433e-08" y2="-5.20437e-07" gradientUnits="userSpaceOnUse">
<stop stop-color="#DADADA"/>
<stop offset="1" stop-color="#191919"/>
</linearGradient>
</defs>
</svg>
