<svg width="72" height="72" viewBox="0 0 72 72" fill="none" xmlns="http://www.w3.org/2000/svg">
<path d="M27 49.2422L19.2422 57L27 64.7578L22.7578 69L15 61.2422L7.24219 69L3 64.7578L10.7578 57L3 49.2422L7.24219 45L15 52.7578L22.7578 45L27 49.2422ZM36 6C52.5685 6 66 19.4315 66 36C66 52.5685 52.5685 66 36 66V59.5049C41.0196 54.0089 44.2171 46.8039 44.874 39H6.14941C6.05144 38.0132 6 37.0125 6 36C6 19.4315 19.4315 6 36 6ZM50.8916 39C50.3811 46.0912 48.073 52.7993 44.335 58.5117C52.5806 55.4575 58.6927 48.0037 59.8154 39H50.8916ZM27.665 13.4883C19.4194 16.5426 13.3073 23.9963 12.1846 33H21.1084C21.6189 25.9087 23.927 19.2007 27.665 13.4883ZM36 12.4951C30.9804 17.9911 27.7829 25.1961 27.126 33H44.874C44.2171 25.1961 41.0196 17.9911 36 12.4951ZM44.335 13.4883C48.073 19.2007 50.3811 25.9088 50.8916 33H59.8154C58.6927 23.9963 52.5806 16.5426 44.335 13.4883Z" fill="#808085"/>
</svg>
