<svg width="24" height="24" viewBox="0 0 24 24" fill="none" xmlns="http://www.w3.org/2000/svg">
<path d="M12 14C12.5523 14 13 14.4477 13 15V17C13 17.5523 12.5523 18 12 18C11.4477 18 11 17.5523 11 17V15C11 14.4477 11.4477 14 12 14Z" fill="#808085"/>
<path fill-rule="evenodd" clip-rule="evenodd" d="M18 8C18 4.68629 15.3137 2 12 2C8.68629 2 6 4.68629 6 8L6 10C4.34315 10 3 11.3431 3 13V19C3 20.6569 4.34315 22 6 22H18C19.6569 22 21 20.6569 21 19V13C21 11.3431 19.6569 10 18 10V8ZM16 10V8C16 5.79086 14.2091 4 12 4C9.79086 4 8 5.79086 8 8V10H16ZM6 12C5.44772 12 5 12.4477 5 13V19C5 19.5523 5.44772 20 6 20H18C18.5523 20 19 19.5523 19 19V13C19 12.4477 18.5523 12 18 12H6Z" fill="#808085"/>
</svg>
