<svg width="32" height="32" viewBox="0 0 32 32" fill="none" xmlns="http://www.w3.org/2000/svg">
<rect width="32" height="32" fill="#15271C"/>
<path d="M7.91525 9.44068C8.42074 9.44068 8.83051 9.85045 8.83051 10.3559V16.4576C8.83051 20.1645 11.8355 23.1695 15.5424 23.1695H15.8475C16.3529 23.1695 16.7627 23.5793 16.7627 24.0847C16.7627 24.5902 16.3529 25 15.8475 25H15.5424C10.8246 25 7 21.1754 7 16.4576V10.3559C7 9.85045 7.40977 9.44068 7.91525 9.44068Z" fill="#5B978E"/>
<path fill-rule="evenodd" clip-rule="evenodd" d="M11.2712 7.15254C11.7767 7.15254 12.1864 7.56232 12.1864 8.0678V11.839C13.1908 10.918 14.5298 10.3559 16 10.3559C19.1171 10.3559 21.6441 12.8829 21.6441 16C21.6441 18.6936 21.6441 21.3899 21.6441 24.0847C21.6441 24.5902 21.2343 25 20.7288 25C20.2233 25 19.8136 24.5902 19.8136 24.0847V20.1607C18.8091 21.0818 17.4703 21.6441 16 21.6441C12.8829 21.6441 10.3559 19.1171 10.3559 16C10.3559 13.3559 10.3559 10.7119 10.3559 8.0678C10.3559 7.56232 10.7657 7.15254 11.2712 7.15254ZM16 12.1864C13.8938 12.1864 12.1864 13.8938 12.1864 16C12.1864 18.1062 13.8938 19.8136 16 19.8136C18.1062 19.8136 19.8136 18.1062 19.8136 16C19.8136 13.8938 18.1062 12.1864 16 12.1864Z" fill="#5B978E"/>
<path d="M16.4576 7C21.1754 7 25 10.8246 25 15.5424V21.339C25 21.8445 24.5902 22.2542 24.0847 22.2542C23.5793 22.2542 23.1695 21.8445 23.1695 21.339V15.5424C23.1695 11.8355 20.1645 8.83051 16.4576 8.83051H16.1525C15.6471 8.83051 15.2373 8.42074 15.2373 7.91525C15.2373 7.40977 15.6471 7 16.1525 7H16.4576Z" fill="#5B978E"/>
</svg>
