<svg width="24" height="24" viewBox="0 0 24 24" fill="none" xmlns="http://www.w3.org/2000/svg">
<path d="M16.1006 5.08594L19.7549 4.59375L22.4297 8.97168L22.0098 9.5166L20.0928 11.999L22.4297 15.0273L19.7549 19.4053L16.1006 18.9131L14.833 22H9.38574L8.11719 18.9131L4.46191 19.4053L1.78809 15.0273L4.12598 11.999L1.78809 8.97168L4.46289 4.59375L8.11719 5.08594L9.38574 2H14.833L16.1006 5.08594ZM9.38086 7.27441L5.48828 6.75L4.21191 8.83887L6.65332 12L4.21191 15.1592L5.48828 17.248L9.38086 16.7256L10.7256 20H13.4932L14.8379 16.7256L18.7285 17.248L20.0049 15.1602L17.5654 12L20.0049 8.83887L18.7285 6.75L15.6035 7.17188L14.8379 7.27441L13.4932 4H10.7256L9.38086 7.27441ZM12.1094 9C13.7662 9 15.1094 10.3431 15.1094 12C15.1094 13.6569 13.7662 15 12.1094 15C10.4525 15 9.10938 13.6569 9.10938 12C9.10938 10.3431 10.4525 9 12.1094 9ZM12.1094 11C11.5571 11 11.1094 11.4477 11.1094 12C11.1094 12.5523 11.5571 13 12.1094 13C12.6617 13 13.1094 12.5523 13.1094 12C13.1094 11.4477 12.6617 11 12.1094 11Z" fill="#808085"/>
</svg>
