<svg width="24" height="24" viewBox="0 0 24 24" fill="none" xmlns="http://www.w3.org/2000/svg">
<path d="M12 2C17.5228 2 22 6.47715 22 12C22 17.5228 17.5228 22 12 22C6.47715 22 2 17.5228 2 12C2 9.24237 3.11737 6.74355 4.92188 4.93555L5.62891 4.22852L12.7061 11.292L11.2939 12.708L8.55176 9.97168C8.20098 10.5665 8 11.2593 8 12C8 14.2091 9.79086 16 12 16C14.2091 16 16 14.2091 16 12C16 9.79086 14.2091 8 12 8V6C15.3137 6 18 8.68629 18 12C18 15.3137 15.3137 18 12 18C8.68629 18 6 15.3137 6 12C6 10.7066 6.41039 9.50805 7.10645 8.52832L5.67676 7.10156C4.62599 8.45564 4 10.1537 4 12C4 16.4183 7.58172 20 12 20C16.4183 20 20 16.4183 20 12C20 7.58172 16.4183 4 12 4V2Z" fill="#FFB700"/>
</svg>
