<svg width="24" height="24" viewBox="0 0 24 24" fill="none" xmlns="http://www.w3.org/2000/svg">
<path d="M12 4C14.7266 4 17.1148 5.32105 18.9434 6.85938C20.7774 8.40248 22.1505 10.2479 22.8682 11.5039L23.1514 12L22.8682 12.4961C22.1505 13.7521 20.7774 15.5975 18.9434 17.1406C17.1148 18.679 14.7266 20 12 20C9.27343 20 6.88519 18.679 5.05664 17.1406C3.22255 15.5975 1.84955 13.7521 1.13184 12.4961L0.848633 12L1.13184 11.5039C1.84955 10.2479 3.22255 8.40248 5.05664 6.85938C6.88519 5.32105 9.27343 4 12 4ZM12 6C9.92681 6 7.9818 7.01245 6.34375 8.39062C4.9454 9.56718 3.84485 10.9504 3.1709 12C3.84485 13.0496 4.9454 14.4328 6.34375 15.6094C7.9818 16.9875 9.92681 18 12 18C14.0732 18 16.0182 16.9875 17.6562 15.6094C19.0544 14.433 20.1541 13.0495 20.8281 12C20.1541 10.9505 19.0544 9.56701 17.6562 8.39062C16.0182 7.01245 14.0732 6 12 6ZM12 9.5C13.3807 9.5 14.5 10.6193 14.5 12C14.5 13.3807 13.3807 14.5 12 14.5C10.6193 14.5 9.5 13.3807 9.5 12C9.5 10.6193 10.6193 9.5 12 9.5Z" fill="#808085"/>
</svg>
