<svg width="32" height="32" viewBox="0 0 32 32" fill="none" xmlns="http://www.w3.org/2000/svg">
<rect width="32" height="32" fill="white"/>
<path fill-rule="evenodd" clip-rule="evenodd" d="M16 4.62286C15.9999 4.51379 16.0288 4.40661 16.0837 4.31207C16.1387 4.21752 16.2177 4.13893 16.313 4.08416C16.4082 4.0294 16.5163 4.00037 16.6264 4C16.7366 3.99963 16.8449 4.02793 16.9405 4.08206L21.5 6.66236L26.604 9.5508C26.7243 9.61883 26.8242 9.71713 26.8938 9.83575C26.9633 9.95436 27 10.0891 27 10.2262V16L22.2794 13.3287C22.042 13.1944 21.7734 13.1237 21.5 13.1237C21.2266 13.1237 20.958 13.1944 20.7206 13.3287L16 16V4.62286ZM5 16V10.2262C5.00004 10.0891 5.03669 9.95436 5.10624 9.83575C5.17578 9.71713 5.27574 9.61883 5.396 9.5508L9.72057 7.10356C9.95796 6.96927 10.2266 6.89864 10.5 6.89864C10.7734 6.89864 11.042 6.96927 11.2794 7.10356L16 9.77491L5 16ZM16 27.3779C15.9999 27.4869 15.9709 27.594 15.916 27.6884C15.861 27.7829 15.7819 27.8614 15.6867 27.916C15.5915 27.9707 15.4834 27.9997 15.3734 28C15.2633 28.0003 15.1551 27.972 15.0595 27.9179L10.5 25.3376L5.396 22.4492C5.27574 22.3812 5.17578 22.2829 5.10624 22.1643C5.03669 22.0456 5.00004 21.9109 5 21.7738V16L9.72057 18.6713C9.95796 18.8056 10.2266 18.8763 10.5 18.8763C10.7734 18.8763 11.042 18.8056 11.2794 18.6713L16 16V27.3779ZM20.7206 24.8964C20.958 25.0307 21.2266 25.1014 21.5 25.1014C21.7734 25.1014 22.042 25.0307 22.2794 24.8964L26.604 22.4492C26.7243 22.3812 26.8242 22.2829 26.8938 22.1643C26.9633 22.0456 27 21.9109 27 21.7738V16L16 22.2251L20.7206 24.8964Z" fill="#159DFF"/>
</svg>
