<svg width="20" height="20" viewBox="0 0 20 20" fill="none" xmlns="http://www.w3.org/2000/svg">
<path d="M13.8398 2.5C14.9901 2.49866 16.1419 2.94589 17.0195 3.8418C17.8935 4.73414 18.3308 5.90378 18.333 7.07324C18.3351 8.24841 17.8977 9.42456 17.0195 10.3213L10 17.5L2.98145 10.3213C2.10309 9.42452 1.66489 8.24855 1.66699 7.07324C1.6692 5.90373 2.10744 4.73416 2.98145 3.8418C3.85904 2.94611 5.01002 2.49868 6.16016 2.5C7.30671 2.5015 8.45331 2.94875 9.32812 3.8418L10 4.54102L10.6719 3.8418C11.5467 2.94875 12.6933 2.5015 13.8398 2.5Z" fill="url(#paint0_linear_11222_19180)"/>
<defs>
<linearGradient id="paint0_linear_11222_19180" x1="1.66699" y1="10" x2="18.333" y2="10" gradientUnits="userSpaceOnUse">
<stop offset="0.25" stop-color="#FFAA00"/>
<stop offset="1" stop-color="#FE4A11"/>
</linearGradient>
</defs>
</svg>
