<svg width="24" height="24" viewBox="0 0 24 24" fill="none" xmlns="http://www.w3.org/2000/svg">
<path d="M12 17.5C12 20.2614 9.76142 22.5 7 22.5V23.5L4 21L7 18.5V20.5C8.65685 20.5 10 19.1569 10 17.5H12ZM20 5H4V7H22V21H14V19H20V17H18.5C16.8431 17 15.5 15.6569 15.5 14C15.5 12.3431 16.8431 11 18.5 11H20V9H4V11H2V3H20V5ZM10 13.5L7 16V14.5C5.34315 14.5 4 15.8431 4 17.5H2C2 14.7386 4.23858 12.5 7 12.5V11L10 13.5ZM18.5 13C17.9477 13 17.5 13.4477 17.5 14C17.5 14.5523 17.9477 15 18.5 15H20V13H18.5Z" fill="#808085"/>
</svg>
