<svg width="32" height="32" viewBox="0 0 32 32" fill="none" xmlns="http://www.w3.org/2000/svg">
<path d="M26.6405 20.4639C26.9599 20.4641 27.1198 20.8445 26.8944 21.0674L23.4247 24.4863C23.2901 24.6188 23.107 24.6934 22.9169 24.6934H5.35925C5.04006 24.693 4.88016 24.3128 5.10535 24.0898L8.57507 20.6709C8.70966 20.5384 8.89267 20.4639 9.08289 20.4639H26.6405ZM22.9169 14.0381C23.1071 14.0381 23.2901 14.1126 23.4247 14.2451L26.8944 17.6631C27.1206 17.886 26.9601 18.2674 26.6405 18.2676H9.08289C8.89261 18.2676 8.70967 18.1932 8.57507 18.0605L5.10535 14.6426C4.8797 14.4197 5.03992 14.0385 5.35925 14.0381H22.9169ZM26.6405 7.69336C26.96 7.69357 27.1201 8.07492 26.8944 8.29785L23.4247 11.7158C23.2901 11.8483 23.1071 11.9229 22.9169 11.9229H5.35925C5.04004 11.9225 4.88013 11.5422 5.10535 11.3193L8.57507 7.90137C8.70968 7.76872 8.89259 7.69337 9.08289 7.69336H26.6405Z" fill="#808085"/>
</svg>
