<svg width="32" height="32" viewBox="0 0 32 32" fill="none" xmlns="http://www.w3.org/2000/svg">
<rect width="32" height="32" fill="#5FC4D4"/>
<path fill-rule="evenodd" clip-rule="evenodd" d="M9.12395 7.87308C8.79632 6.11865 10.1425 4.4978 11.9273 4.4978C13.5023 4.4978 14.779 5.77458 14.779 7.34957V10.8654C15.173 10.8376 15.5733 10.8233 15.9787 10.8233C16.3682 10.8233 16.753 10.8365 17.1319 10.8622V7.34957C17.1319 5.77458 18.4087 4.4978 19.9837 4.4978C21.7685 4.4978 23.1146 6.11865 22.787 7.87308L22.0153 12.0057C24.6639 13.1621 26.6666 15.1704 26.6666 17.6942V19.221C26.6666 21.2963 25.2937 23.0339 23.3742 24.2069C21.4398 25.389 18.8229 26.0917 15.9787 26.0917C13.1345 26.0917 10.5176 25.389 8.58317 24.2069C6.66375 23.0339 5.29077 21.2963 5.29077 19.221V17.6942C5.29077 15.1838 7.27294 13.1831 9.89921 12.0245L9.12395 7.87308Z" fill="#633001"/>
<path d="M21.9295 7.71299L21.0263 12.5487C23.8829 13.5975 25.7943 15.5094 25.7943 17.6942V19.221C25.7943 22.5338 21.3997 25.2193 15.9787 25.2193C10.5579 25.2193 6.16333 22.5338 6.16333 19.221V17.6942C6.16333 15.5206 8.05528 13.6169 10.8877 12.5648L9.98168 7.71299C9.75428 6.49531 10.6886 5.37036 11.9273 5.37036C13.0205 5.37036 13.9066 6.25651 13.9066 7.34964V11.8298C14.193 11.7922 14.4841 11.7622 14.7791 11.7402C15.1723 11.7109 15.5726 11.6959 15.9787 11.6959C16.369 11.6959 16.7538 11.7098 17.132 11.7368C17.4271 11.7579 17.7181 11.787 18.0045 11.8238V7.34964C18.0045 6.25651 18.8907 5.37036 19.9838 5.37036C21.2225 5.37036 22.1568 6.49532 21.9295 7.71299Z" fill="#F7DA9A"/>
<path fill-rule="evenodd" clip-rule="evenodd" d="M9.98144 7.71275C9.75405 6.49508 10.6884 5.37012 11.9271 5.37012C13.0202 5.37012 13.9064 6.25628 13.9064 7.34941V11.8295C14.5744 11.7418 15.2676 11.6956 15.9785 11.6956C16.673 11.6956 17.3506 11.7397 18.0042 11.8235V7.34941C18.0042 6.25628 18.8904 5.37012 19.9835 5.37012C21.2223 5.37012 22.1566 6.49508 21.9292 7.71275L21.0261 12.5485C23.8827 13.5973 25.794 15.5092 25.794 17.694C25.794 21.0068 21.3995 23.6923 15.9785 23.6923C10.5576 23.6923 6.16309 21.0068 6.16309 17.694C6.16309 15.5203 8.05503 13.6167 10.8875 12.5645L9.98144 7.71275Z" fill="#D1884F"/>
<path d="M13.2525 17.2581C13.2525 18.1616 12.7642 18.894 12.1619 18.894C11.5596 18.894 11.0713 18.1616 11.0713 17.2581C11.0713 16.3546 11.5596 15.6222 12.1619 15.6222C12.7642 15.6222 13.2525 16.3546 13.2525 17.2581Z" fill="#633001"/>
<path d="M20.7774 17.2581C20.7774 18.1616 20.2891 18.894 19.6868 18.894C19.0845 18.894 18.5962 18.1616 18.5962 17.2581C18.5962 16.3546 19.0845 15.6222 19.6868 15.6222C20.2891 15.6222 20.7774 16.3546 20.7774 17.2581Z" fill="#633001"/>
</svg>
