<svg width="24" height="24" viewBox="0 0 24 24" fill="none" xmlns="http://www.w3.org/2000/svg">
<path d="M4 19H2V17H4V19Z" fill="#808085"/>
<path fill-rule="evenodd" clip-rule="evenodd" d="M11.0049 3H11C11 6.31371 13.6863 9 17 9V8.99512H18V10.9951H17V11C13.6879 11 11.0026 13.6837 11 16.9951H11.0049V17.9951H9.00488V17H9C9 13.6863 6.31371 11 3 11V10.9951H2V8.99512H3V9C6.31371 9 9 6.31371 9 3H9.00488V2H11.0049V3ZM10 6.87207C9.27187 8.18559 8.18559 9.27187 6.87207 10C8.18534 10.728 9.27187 11.8138 10 13.127C10.728 11.814 11.814 10.728 13.127 10C11.8138 9.27187 10.728 8.18534 10 6.87207Z" fill="#808085"/>
<path d="M19 4H17V2H19V4Z" fill="#808085"/>
<path d="M22 19H19V17H22V19Z" fill="#808085"/>
<path d="M17 19H14V17H17V19Z" fill="#808085"/>
<path d="M19 22H17V19H19V22Z" fill="#808085"/>
<path d="M19 17H17V14H19V17Z" fill="#808085"/>
</svg>
