<svg width="24" height="24" viewBox="0 0 24 24" fill="none" xmlns="http://www.w3.org/2000/svg">
<path d="M12 2C13.8565 2 15.6374 2.73705 16.9502 4.0498C18.0462 5.14584 18.738 6.56861 18.9375 8.08887C19.9147 8.27554 20.8216 8.75125 21.5352 9.46484C22.4728 10.4025 23 11.6739 23 13C23 14.3261 22.4728 15.5975 21.5352 16.5352C20.7003 17.3701 19.6007 17.8778 18.4336 17.9795L13.707 22.707L12.293 21.293L17 16.5859V9L16.9941 8.75195C16.9328 7.51622 16.4142 6.3439 15.5352 5.46484C14.5975 4.52716 13.3261 4 12 4C10.6739 4 9.40253 4.52716 8.46484 5.46484C7.58579 6.3439 7.06723 7.51622 7.00586 8.75195L7 9V18H6C4.67392 18 3.40253 17.4728 2.46484 16.5352C1.52716 15.5975 1 14.3261 1 13C1 11.6739 1.52716 10.4025 2.46484 9.46484C3.17821 8.75147 4.08472 8.27567 5.06152 8.08887C5.26101 6.56856 5.95374 5.14587 7.0498 4.0498C8.36256 2.73705 10.1435 2 12 2ZM5 10.1758C4.58261 10.3236 4.19797 10.5598 3.87891 10.8789C3.3163 11.4415 3 12.2044 3 13C3 13.7956 3.3163 14.5585 3.87891 15.1211C4.19797 15.4402 4.58261 15.6764 5 15.8242V10.1758ZM19 15.8242C19.4174 15.6764 19.802 15.4402 20.1211 15.1211C20.6837 14.5585 21 13.7956 21 13C21 12.2044 20.6837 11.4415 20.1211 10.8789C19.802 10.5598 19.4174 10.3236 19 10.1758V15.8242Z" fill="#FFB700"/>
</svg>
