<svg width="32" height="32" viewBox="0 0 32 32" fill="none" xmlns="http://www.w3.org/2000/svg">
<rect width="32" height="32" fill="#24A1DD"/>
<path fill-rule="evenodd" clip-rule="evenodd" d="M7.25241 15.8256C11.9128 13.782 15.0281 12.4611 16.5733 11.8131C21.0094 9.96889 21.9315 9.6449 22.5297 9.6449C22.6543 9.6449 22.9533 9.66982 23.1527 9.81935C23.3023 9.94396 23.3521 10.1184 23.377 10.243C23.4019 10.3676 23.4269 10.6418 23.4019 10.8661C23.1527 13.3832 22.1309 19.539 21.5826 22.3552C21.3583 23.5514 20.9097 23.9502 20.4861 24C19.5639 24.0748 18.8412 23.377 17.944 22.8038C16.5484 21.8817 15.7509 21.3084 14.3801 20.4113C12.81 19.3645 13.8319 18.7913 14.729 17.8692C14.9533 17.62 19.0655 13.9066 19.1403 13.5577C19.1403 13.5078 19.1652 13.3583 19.0655 13.2835C18.9658 13.2088 18.8412 13.2337 18.7415 13.2586C18.592 13.2835 16.349 14.7789 11.9876 17.7197C11.3396 18.1683 10.7664 18.3676 10.2431 18.3676C9.66986 18.3676 8.57328 18.0437 7.75085 17.7695C6.75397 17.4455 5.95646 17.2711 6.03123 16.7228C6.10599 16.4237 6.50475 16.1246 7.25241 15.8256Z" fill="white"/>
</svg>
