<svg width="102" height="29" viewBox="0 0 102 29" fill="none" xmlns="http://www.w3.org/2000/svg">
<path fill-rule="evenodd" clip-rule="evenodd" d="M89.0727 0C91.7157 2.26617e-06 94.0011 0.330171 95.9239 0.996731C97.7982 1.64223 99.2666 2.56957 100.315 3.78671L100.415 3.90553C101.474 5.18598 102 6.72679 102 8.51574V21.227C102 21.5031 101.776 21.727 101.5 21.727H92.8905C92.6143 21.727 92.3905 21.5031 92.3905 21.227V20.2999C92.3905 19.8219 91.7388 19.5811 91.3749 19.891C91.1728 20.0631 90.959 20.2262 90.7334 20.3805C90.7333 20.3805 90.7333 20.3806 90.7333 20.3807C90.7334 20.3807 90.7334 20.3808 90.7333 20.3808C89.9645 20.9151 89.0569 21.3223 88.014 21.6056C86.8901 21.8865 85.7436 22.011 84.5855 22.011C82.7231 22.011 81.0986 21.7559 79.7172 21.2395L79.7148 21.2386C78.3888 20.7257 77.3364 19.9962 76.5686 19.045L76.4943 18.9512C75.7164 17.9359 75.3313 16.7192 75.3313 15.3129V15.294C75.3313 14.0164 75.6703 12.8947 76.3542 11.9384C76.3694 11.917 76.3867 11.8969 76.4053 11.8784C77.4151 10.8715 78.3192 10.1316 79.7004 9.63152C81.1964 9.08988 83.1356 8.80436 85.5089 8.76623L92.1788 8.63693C92.2963 8.63465 92.3905 8.53868 92.3905 8.42107L92.3896 8.35492C92.3728 7.69897 92.1041 7.18196 91.5731 6.7867L91.5191 6.74774C90.9289 6.33111 90.0419 6.10683 88.8266 6.10683C87.7838 6.10683 86.9986 6.26278 86.451 6.55405C86.0079 6.80725 85.6141 7.12514 85.4617 7.63305L85.4595 7.64023C85.3912 7.82257 85.2169 7.94338 85.0221 7.94338H76.4354C76.4211 7.94338 76.4103 7.9306 76.4126 7.91655C76.4171 7.8899 76.3799 7.87867 76.3689 7.90332L71.1529 19.5129C70.1967 21.4252 69.1776 23.285 67.6831 24.8393C66.4103 26.1887 64.923 27.155 63.2227 27.735C63.2227 27.735 63.2226 27.7351 63.2227 27.7351C63.2227 27.7352 63.2227 27.7353 63.2227 27.7353C61.5398 28.3262 59.5635 28.6188 57.2983 28.6188C56.3317 28.6188 55.4326 28.5614 54.6015 28.4465C53.878 28.3574 53.2434 28.2488 52.6988 28.1194L52.4709 28.0626C52.3727 28.0369 52.3042 27.9482 52.3042 27.8467V21.9019C52.3042 21.7557 52.4425 21.6491 52.5839 21.6863C52.9924 21.7938 53.4455 21.8783 53.9438 21.9394L54.1602 21.9642C54.7586 22.0241 55.3518 22.0765 55.9541 22.0765C56.6817 22.0765 57.315 21.9901 57.857 21.8215C58.303 21.6728 58.7403 21.4929 59.0919 21.1722C59.1053 21.1599 59.1169 21.1457 59.1264 21.1302C59.1626 21.0713 59.1666 20.9981 59.137 20.9356L54.5063 11.1636C54.3577 10.85 53.7216 11.0277 53.7216 11.3747V12.669C53.7216 12.9452 53.4978 13.169 53.2216 13.169H35.9195C35.5993 13.169 35.3592 13.4677 35.4712 13.7678C35.5381 13.9469 35.6151 14.115 35.7024 14.2722L35.7776 14.401C36.1934 15.0781 36.78 15.5776 37.5448 15.9011C38.3323 16.2161 39.2874 16.3775 40.4157 16.3775C41.1055 16.3775 41.7286 16.2975 42.2864 16.1399C42.7938 15.9369 43.293 15.8063 43.7596 15.5044C44.1662 15.2413 44.4688 14.9418 44.6758 14.6084L44.681 14.6002C44.7625 14.4914 44.8905 14.4274 45.0264 14.4274H53.0148C53.2679 14.4274 53.4591 14.6565 53.4139 14.9055L53.4122 14.9125C53.1353 16.02 52.602 17.0273 51.891 17.9161C51.0798 18.8981 50.0901 19.5439 49.0451 20.2406C47.9005 20.8836 46.574 21.376 45.0684 21.7207C43.5719 22.0788 41.9195 22.2571 40.1128 22.2571C37.3166 22.2571 34.8795 21.8574 32.8066 21.0515L32.606 20.9718C30.5558 20.1269 28.9475 18.9165 27.791 17.337L27.68 17.1821C27.6742 17.1738 27.6685 17.1655 27.6627 17.1572C27.3637 16.7241 26.3617 16.8482 26.1353 17.3232C25.8849 17.8487 25.5526 18.3396 25.1385 18.7951C23.8825 20.0512 22.3788 20.8567 20.6841 21.3764C18.7638 21.9653 16.4622 22.2571 13.7838 22.2571C11.0058 22.2571 8.62366 21.9782 6.64176 21.4156C4.66287 20.8538 3.10036 20.051 1.96887 18.9975L1.96691 18.9958C0.845976 17.927 0.201249 16.6612 0.043743 15.2043C0.0203561 14.9705 0.204473 14.7679 0.439391 14.769L9.01286 14.8056C9.17277 14.8062 9.31627 14.9039 9.37559 15.0524L9.37907 15.0646C9.53142 15.6195 9.94964 16.0412 10.6955 16.3142C11.4572 16.5802 12.5019 16.7183 13.8406 16.7183C14.4679 16.7183 15.0908 16.676 15.7064 16.5529C16.2198 16.4429 16.5887 16.2942 16.8308 16.119C17.0591 15.9416 17.1584 15.7395 17.1584 15.5022V15.4833C17.1584 15.3217 17.1174 15.1925 17.0426 15.0859C16.9666 14.9776 16.8455 14.8787 16.6641 14.7962L16.6567 14.7928C16.293 14.6109 15.5925 14.4554 14.5214 14.3418L9.00867 13.8496C7.20938 13.6647 5.69707 13.3175 4.47746 12.803L4.35863 12.7521C3.15693 12.2138 2.23777 11.5051 1.61632 10.6195L1.55712 10.5334C0.936419 9.60891 0.629377 8.52947 0.629377 7.304V7.26613C0.629377 5.71186 1.12764 4.38221 2.12687 3.29095C3.3291 2.08872 4.78711 1.32763 6.41085 0.842651L6.58604 0.790639C8.40689 0.261984 10.5676 1.90309e-06 13.0644 0C15.7293 0 17.9933 0.285284 19.8513 0.861803C21.7178 1.43709 23.1746 2.25441 24.2053 3.32382C25.2059 4.3497 25.7742 5.55902 25.9041 6.94491L25.9159 7.08767C25.9159 7.29885 25.7447 7.47004 25.5335 7.47004H17.4457C17.28 7.47004 17.1373 7.3531 17.1048 7.19061C17.026 6.73745 16.7221 6.3591 16.1272 6.06918L16.0043 6.01238C15.3244 5.71416 14.3869 5.55776 13.178 5.55776C12.4441 5.55776 11.8236 5.6135 11.3135 5.72269C11.3134 5.7227 11.3134 5.72278 11.3134 5.72283C11.3135 5.72287 11.3135 5.72295 11.3134 5.72297C10.8132 5.83278 10.4508 5.98707 10.2091 6.17386C9.97901 6.35165 9.87917 6.55464 9.87917 6.79279V6.81172C9.87917 7.02582 9.94358 7.19017 10.0646 7.32119C10.2025 7.45666 10.4484 7.58685 10.8328 7.69507C11.2221 7.79195 11.7579 7.87826 12.4446 7.95318L18.1584 8.44523C21.1366 8.71137 23.3221 9.3534 24.6737 10.4026C25.0302 10.676 25.3396 10.976 25.6024 11.3018C25.7085 11.4335 25.9548 11.3545 25.9548 11.1854C25.9548 8.86222 26.5332 6.85956 27.6991 5.18844C28.8745 3.5094 30.5126 2.22829 32.604 1.34298C34.6942 0.44554 37.1104 7.74856e-06 39.8477 0C42.6611 0 45.1047 0.464502 47.1719 1.40174C47.6669 1.62478 48.1354 1.86958 48.5774 2.13614C49.043 2.41698 50.0136 1.68272 49.7808 1.19135C49.6352 0.884188 49.8593 0.530139 50.1992 0.530139H59.2863C59.4925 0.530139 59.6775 0.656705 59.7522 0.848862L64.3737 12.7286C64.5408 13.1581 65.1508 13.152 65.3092 12.7192L69.6513 0.858253C69.7234 0.661186 69.911 0.530139 70.1208 0.530139H79.0502C79.3465 0.530139 79.5442 0.835695 79.4228 1.10593L78.3473 3.49935C78.3234 3.55248 78.3982 3.60004 78.4373 3.55689L78.5348 3.45156C79.5522 2.37158 80.9166 1.53663 82.6175 0.940584C84.3902 0.311145 86.544 0 89.0727 0ZM87.1663 13.2824C86.246 13.3073 85.6072 13.4569 85.2164 13.702C84.8506 13.9392 84.6758 14.2604 84.6758 14.6881V14.707L84.6789 14.8121C84.6931 15.0521 84.7568 15.2549 84.8643 15.4265C84.9873 15.6228 85.1762 15.7915 85.4436 15.9281C86.0076 16.2098 86.7646 16.3586 87.7285 16.3586C88.7198 16.3586 89.5573 16.2346 90.2464 15.9932C90.9502 15.7384 91.4746 15.3862 91.8346 14.9449C92.1683 14.4445 92.3905 13.9809 92.3905 13.3627C92.3905 13.2542 92.3012 13.1669 92.1927 13.1694L87.1663 13.2824ZM40.1128 5.93643C39.0514 5.93644 38.1505 6.10903 37.4035 6.44611C36.6724 6.78172 36.1143 7.27603 35.7219 7.92989C35.5578 8.21258 35.785 8.53903 36.1119 8.53903H43.8851C44.2047 8.53903 44.4279 8.22166 44.2727 7.9423C43.9392 7.34202 43.4603 6.87124 42.8298 6.52881L42.7017 6.462C42.0083 6.11532 41.1483 5.93643 40.1128 5.93643ZM82.3772 1.26507C82.2719 1.30487 82.1679 1.34564 82.0654 1.38737C82.1688 1.34526 82.2732 1.30576 82.3772 1.26507ZM95.6725 1.14689C95.7317 1.16653 95.7905 1.18648 95.849 1.20674C95.735 1.16724 95.6196 1.12896 95.503 1.09183L95.6725 1.14689Z" fill="white"/>
</svg>
