<svg width="24" height="24" viewBox="0 0 24 24" fill="none" xmlns="http://www.w3.org/2000/svg">
<path d="M16.6074 3C17.9879 2.9983 19.3696 3.53517 20.4229 4.61035C21.4717 5.68119 21.9973 7.08388 22 8.4873C22.0027 9.89787 21.477 11.3095 20.4229 12.3857L12 21L3.57715 12.3857C2.52299 11.3095 1.99734 9.89786 2 8.4873C2.00266 7.08389 2.52834 5.68118 3.57715 4.61035C4.63041 3.53517 6.01212 2.99831 7.39258 3C8.76843 3.0018 10.1436 3.53871 11.1934 4.61035L12 5.44922L12.8066 4.61035C13.8564 3.5387 15.2316 3.00181 16.6074 3ZM18.9883 6.05273C17.6501 4.68687 15.5294 4.65845 14.1914 6.02441L12 8.27734L9.80859 6.02441C8.47059 4.65845 6.3499 4.68685 5.01172 6.05273L4.88965 6.18359C3.67474 7.5568 3.71555 9.67672 5.01172 11L12 18.1719L18.9883 11C20.2845 9.67672 20.3253 7.5568 19.1104 6.18359L18.9883 6.05273Z" fill="#808085"/>
</svg>
