<svg width="187" height="27" viewBox="0 0 187 27" fill="none" xmlns="http://www.w3.org/2000/svg">
<path d="M0 26.6356V0H26.0308V6.07283H8.48326V11.4812H24.6364V17.0741H8.48326V26.6356H0Z" fill="url(#paint0_linear_11259_18950)"/>
<path d="M31.8413 26.6356V0H49.8925C52.4749 0 54.6442 0.350712 56.4002 1.05213C58.1563 1.74125 59.4733 2.738 60.3513 4.0424C61.2423 5.33449 61.6877 6.89116 61.6877 8.71239V8.7493C61.6877 10.6198 61.1906 12.2318 60.1964 13.5854C59.2151 14.9267 57.7689 15.905 55.8579 16.5203L62.7917 26.6356H53.2626L47.5489 17.8309C47.4844 17.8309 47.4198 17.8309 47.3552 17.8309C47.2907 17.8309 47.2261 17.8309 47.1616 17.8309H40.3246V26.6356H31.8413ZM40.3246 12.6256H49.079C50.3702 12.6256 51.3774 12.3179 52.1005 11.7027C52.8235 11.0874 53.1851 10.2321 53.1851 9.13694V9.10002C53.1851 8.02943 52.8171 7.18649 52.0811 6.57121C51.3451 5.95592 50.3315 5.64829 49.0403 5.64829H40.3246V12.6256Z" fill="url(#paint1_linear_11259_18950)"/>
<path d="M68.2536 26.6356V0H76.7368V26.6356H68.2536Z" fill="url(#paint2_linear_11259_18950)"/>
<path d="M83.9805 26.6356V0H99.8818C103.394 0 106.364 0.510685 108.791 1.53205C111.219 2.54112 113.059 4.02395 114.311 5.98054C115.577 7.92483 116.209 10.2998 116.209 13.1055V13.1424C116.209 16.0589 115.577 18.52 114.311 20.5258C113.059 22.5316 111.219 24.0514 108.791 25.085C106.364 26.1187 103.394 26.6356 99.8818 26.6356H83.9805ZM92.4638 20.6181H99.1846C100.966 20.6181 102.477 20.3535 103.717 19.8244C104.969 19.2829 105.925 18.4708 106.583 17.3879C107.242 16.305 107.571 14.9452 107.571 13.3085V13.2716C107.571 11.7088 107.255 10.386 106.622 9.30306C105.989 8.22017 105.053 7.40185 103.814 6.84809C102.574 6.29434 101.031 6.01746 99.1846 6.01746H92.4638V20.6181Z" fill="url(#paint3_linear_11259_18950)"/>
<path d="M118.514 26.6356L131.026 0H139.064V6.14667H136.352L127.462 26.6356H118.514ZM125.409 21.0057L127.733 15.7266H144.855L147.14 21.0057H125.409ZM145.455 26.6356L136.565 6.14667V0H141.872L154.403 26.6356H145.455Z" fill="url(#paint4_linear_11259_18950)"/>
<path d="M165.618 26.6356V17.5724L152.718 0H162.034L169.743 11.0382H169.975L177.665 0H187L174.081 17.5724V26.6356H165.618Z" fill="url(#paint5_linear_11259_18950)"/>
<defs>
<linearGradient id="paint0_linear_11259_18950" x1="189.5" y1="-0.365238" x2="-4.87293e-06" y2="26.6348" gradientUnits="userSpaceOnUse">
<stop stop-color="#191919"/>
<stop offset="1" stop-color="#DADADA"/>
</linearGradient>
<linearGradient id="paint1_linear_11259_18950" x1="189.5" y1="-0.365238" x2="-4.87293e-06" y2="26.6348" gradientUnits="userSpaceOnUse">
<stop stop-color="#191919"/>
<stop offset="1" stop-color="#DADADA"/>
</linearGradient>
<linearGradient id="paint2_linear_11259_18950" x1="189.5" y1="-0.365238" x2="-4.87293e-06" y2="26.6348" gradientUnits="userSpaceOnUse">
<stop stop-color="#191919"/>
<stop offset="1" stop-color="#DADADA"/>
</linearGradient>
<linearGradient id="paint3_linear_11259_18950" x1="189.5" y1="-0.365238" x2="-4.87293e-06" y2="26.6348" gradientUnits="userSpaceOnUse">
<stop stop-color="#191919"/>
<stop offset="1" stop-color="#DADADA"/>
</linearGradient>
<linearGradient id="paint4_linear_11259_18950" x1="189.5" y1="-0.365238" x2="-4.87293e-06" y2="26.6348" gradientUnits="userSpaceOnUse">
<stop stop-color="#191919"/>
<stop offset="1" stop-color="#DADADA"/>
</linearGradient>
<linearGradient id="paint5_linear_11259_18950" x1="189.5" y1="-0.365238" x2="-4.87293e-06" y2="26.6348" gradientUnits="userSpaceOnUse">
<stop stop-color="#191919"/>
<stop offset="1" stop-color="#DADADA"/>
</linearGradient>
</defs>
</svg>
