<svg width="32" height="32" viewBox="0 0 32 32" fill="none" xmlns="http://www.w3.org/2000/svg">
<g clip-path="url(#clip0_5945_5701)">
<rect width="32" height="32" fill="#070C20"/>
<path d="M24.2525 15.6099V11.4514C24.2525 11.2068 24.0414 11.0077 23.7764 11.0023C23.5044 10.9968 23.2312 11.0012 22.9639 11.0152C21.8183 11.0748 20.7125 11.3118 19.676 11.7199C18.8575 12.0424 18.0825 12.4721 17.3742 12.9949C16.8806 13.3596 16.435 13.7558 16.0504 14.1746C16.0328 14.193 16.0176 14.2125 16 14.2309C15.9836 14.2125 15.9672 14.193 15.9496 14.1746C15.5638 13.7569 15.1194 13.3596 14.6258 12.9949C13.9175 12.471 13.1425 12.0424 12.324 11.7199C11.2887 11.3107 10.1829 11.0737 9.03733 11.0152C8.76997 11.0012 8.49679 10.9979 8.22475 11.0023C7.95973 11.0077 7.74867 11.2068 7.74867 11.4514V15.6099H4V19.9685H8.72189V16.5396C9.27652 16.598 9.77018 16.7463 10.2158 16.9888C10.5605 17.1771 10.8935 17.4412 11.2347 17.7973C11.3965 17.9661 11.5455 18.1469 11.7037 18.3374C11.8491 18.5117 11.998 18.6935 12.161 18.8678C12.1798 18.8883 12.1986 18.9067 12.2185 18.9273L12.2443 18.9533L12.6043 18.6578L12.2466 18.9619C13.4661 20.1839 14.6351 20.8636 15.7221 20.9827C15.8276 20.9946 15.9332 21 16.0399 21C17.2054 21 18.4542 20.3127 19.7569 18.9533L19.7839 18.9251C19.8026 18.9067 19.8202 18.8872 19.8378 18.8688C20.0008 18.6946 20.1497 18.5138 20.2951 18.3396C20.4534 18.1491 20.6023 17.9683 20.7653 17.7995C21.1065 17.4434 21.4407 17.1782 21.7842 16.9909C22.2298 16.7474 22.7223 16.6002 23.2781 16.5418V19.9707H28V15.612H24.2513L24.2525 15.6099ZM7.74867 19.0691H4.97323V16.5082H7.74752V19.0691H7.74867ZM19.5235 17.7908C19.3805 17.9629 19.2468 18.1253 19.1014 18.28L19.0287 18.3547C17.8479 19.5875 16.7446 20.1882 15.837 20.0876C15.0021 19.9956 14.0102 19.397 12.9689 18.3558L12.9713 18.3536L12.8998 18.279C12.7555 18.1242 12.6207 17.9618 12.4776 17.7886C12.3158 17.5938 12.1493 17.3925 11.964 17.1998C11.5536 16.7723 11.1444 16.4498 10.7106 16.2127C10.1219 15.8924 9.45478 15.6986 8.72189 15.6337V11.9017C8.80985 11.9039 8.89663 11.9071 8.9834 11.9114C10.0152 11.9645 11.0108 12.1777 11.9429 12.5457C12.6805 12.8369 13.3781 13.2233 14.0184 13.6962C14.4639 14.0253 14.8638 14.3825 15.2097 14.757C15.3105 14.8674 15.4067 14.9799 15.5087 15.1001L15.5802 15.1856C15.6846 15.3663 15.8886 15.5503 16.109 15.7473C17.2441 16.7669 18.5527 17.3633 19.8179 17.4401C19.7158 17.557 19.6185 17.6739 19.5235 17.7897V17.7908ZM21.2906 16.2138C21.1394 16.2961 20.9904 16.3892 20.8439 16.4931C20.7336 16.5082 20.6258 16.5212 20.5214 16.5299C20.4382 16.5374 20.3537 16.5428 20.2681 16.5472C20.1896 16.5504 20.111 16.5515 20.0313 16.5504C18.9549 16.5309 17.8022 16.0168 16.7856 15.1044C16.7563 15.0784 16.6906 15.0156 16.6214 14.9475C16.6777 14.8825 16.7329 14.8187 16.7903 14.757C17.135 14.3825 17.5361 14.0253 17.9816 13.6962C18.6207 13.2233 19.3195 12.8369 20.0571 12.5457C20.9881 12.1777 21.9847 11.9645 23.0166 11.9114C23.1034 11.9071 23.1901 11.9039 23.2781 11.9017V15.6337C22.5441 15.6986 21.8769 15.8924 21.2894 16.2127L21.2906 16.2138ZM27.028 19.0691H24.2537V16.5082H27.028V19.0691Z" fill="url(#paint0_linear_5945_5701)"/>
</g>
<defs>
<linearGradient id="paint0_linear_5945_5701" x1="18.9574" y1="23.2178" x2="25.713" y2="4.51328" gradientUnits="userSpaceOnUse">
<stop stop-color="#54EEF6"/>
<stop offset="1" stop-color="#72FFA0"/>
</linearGradient>
<clipPath id="clip0_5945_5701">
<rect width="32" height="32" fill="white"/>
</clipPath>
</defs>
</svg>
