<svg width="32" height="32" viewBox="0 0 32 32" fill="none" xmlns="http://www.w3.org/2000/svg">
<g clip-path="url(#clip0_2189_40415)">
<rect width="32" height="32" fill="#418ACA"/>
<path d="M-4.47785 12.3455C-5.19868 24.7532 4.86771 30.3558 12.1285 30.3427C23.2984 30.3427 24.076 16.5343 13.9666 16.5343C12.1285 16.5343 9.37139 17.4368 9.10349 19.3918C7.31751 19.3334 5.33291 18.6231 4.69805 16.8487L11.0681 12.6978L11.8718 10.3301C12.4373 10.2131 15.1163 9.51157 14.908 7.9623L18.1823 6.29611L21.4864 4.45452L24.6118 0.157493L24.9393 -1.33331C25.0527 1.67532 23.57 6.3838 20.6231 7.81614C22.3793 8.35206 26.243 9.49403 27.648 9.89158C29.053 10.2891 32.0336 12.9901 33.3334 14.2763C31.607 13.4578 30.5949 13.0778 28.0052 12.9317L30.4163 18.3103C30.9124 20.6098 31.4284 26.8108 29.5233 33.2183C29.019 34.9144 27.7973 36.4909 26.165 37.921C23.3029 39.2542 20.102 40 16.7237 40C4.54199 40 -5.33325 30.3023 -5.33325 18.3395C-5.33325 16.26 -5.03487 14.249 -4.47785 12.3455Z" fill="#262F71"/>
<path fill-rule="evenodd" clip-rule="evenodd" d="M6.17244 37.6396C15.2536 39.972 28.6064 34.8115 29.5488 24.657C30.3026 16.5343 21.9722 11.3824 14.762 12.9024C16.2584 13.2298 17.4571 14.783 17.8694 15.504C16.4213 15.0656 13.7423 14.6622 10.991 14.8025C7.763 14.9671 5.22887 16.3517 3.26793 18.0179C2.95619 17.4041 2.34478 15.8665 2.87574 14.2763C3.40671 12.6861 5.14842 11.2557 5.95291 10.7393C5.74173 11.7624 5.98307 12.5516 6.94846 12.5516C8.00607 12.5516 9.30158 11.1778 9.6636 10.7685C10.0498 10.9322 11.0011 11.0706 11.2323 11.0316C10.1756 10.4059 9.64097 9.89158 9.90495 8.86848C10.086 8.16692 10.875 7.64841 14.0682 6.35457C15.7274 5.68225 17.1453 4.51299 17.4772 3.57758C17.9297 3.92836 18.2314 4.65914 18.171 5.71148C21.3085 3.6945 23.8899 1.12578 24.6572 -1.33331C24.879 0.601231 22.7566 3.28526 21.9722 3.86989L23.2695 3.40219C22.2862 5.51939 20.0716 6.82227 18.0504 7.61152C17.9059 8.80153 17.1755 9.48234 16.6325 9.97927C19.1666 9.24849 20.2828 7.81614 20.2828 7.81614C24.6874 7.87461 31.0351 10.9623 33.1647 14.2763C33.1647 14.2763 30.359 12.3178 28.3076 11.3824C28.6092 11.7916 28.7299 12.2593 28.7299 12.2593C27.3723 11.3239 25.6528 10.9731 23.8427 10.827C34.688 13.6346 36.9357 27.1089 32.5757 33.2196C28.5007 37.3949 22.7297 40 16.3308 40C12.673 40 9.22037 39.1488 6.17244 37.6396ZM16.1196 7.28998C15.7576 9.57003 13.3743 10.4762 11.7754 10.2131C11.7035 9.08187 12.8294 8.7174 14.007 8.33621C14.8072 8.07716 15.6313 7.81039 16.1196 7.28998ZM5.92272 14.2763C6.49592 13.7794 6.2188 13.2594 5.65121 13.3256C5.03933 13.3969 4.56515 13.9548 4.50481 14.8025C4.8065 14.3055 5.22283 13.9548 5.44004 13.9548C5.65725 13.9548 5.87244 14.1594 5.92272 14.2763Z" fill="#E1E1E5"/>
</g>
<defs>
<clipPath id="clip0_2189_40415">
<rect width="32" height="32" fill="white"/>
</clipPath>
</defs>
</svg>
