<svg width="32" height="32" viewBox="0 0 32 32" fill="none" xmlns="http://www.w3.org/2000/svg">
<g clip-path="url(#clip0_21952_67)">
<path d="M32 0H0V32H32V0Z" fill="#1A1716"/>
<path fill-rule="evenodd" clip-rule="evenodd" d="M7.5 8.88765C7.5 7.58831 7.5 6.93864 7.73045 6.43528C7.97195 5.90778 8.38606 5.48352 8.90094 5.2361C9.39226 5 10.0264 5 11.2946 5C12.5629 5 13.197 5 13.6883 5.2361C14.2032 5.48352 14.6173 5.90778 14.8588 6.43528C15.0893 6.93864 15.0893 7.58831 15.0893 8.88765V16.664C15.0893 17.2216 15.0893 17.5004 15.0324 17.7653C14.9819 18.0003 14.8985 18.2265 14.7848 18.437C14.6567 18.6744 14.4768 18.8836 14.1171 19.302L12.6147 21.0498C11.0305 22.8928 10.2384 23.8143 9.55008 23.9015C8.9537 23.9769 8.35923 23.7469 7.96035 23.2865C7.5 22.7551 7.5 21.5271 7.5 19.0713V8.88765ZM16.6072 8.9914C16.6072 7.59428 16.6072 6.89572 16.8725 6.36208C17.106 5.8927 17.4785 5.51107 17.9367 5.2719C18.4575 5 19.1394 5 20.503 5H20.604C21.9678 5 22.6496 5 23.1705 5.2719C23.6286 5.51107 24.0012 5.8927 24.2346 6.36208C24.5 6.89572 24.5 7.59428 24.5 8.9914V14.453C24.5 15.8501 24.5 16.5487 24.2346 17.0824C24.0012 17.5517 23.6286 17.9333 23.1705 18.1726C22.6496 18.4445 21.9678 18.4445 20.604 18.4445H20.503C19.1394 18.4445 18.4575 18.4445 17.9367 18.1726C17.4785 17.9333 17.106 17.5517 16.8725 17.0824C16.6072 16.5487 16.6072 15.8501 16.6072 14.453V8.9914ZM15.4811 20.063C15.229 20.2291 15.0164 20.461 14.5911 20.9246L13.6446 21.9563C12.1847 23.5477 11.4548 24.3435 11.4171 25.0228C11.3843 25.6125 11.6253 26.1835 12.0672 26.5629C12.5762 27 13.6421 27 15.7738 27H20.9211C21.9867 27 22.5195 27 22.9433 26.8321C23.583 26.5786 24.0887 26.0605 24.3361 25.4051C24.5 24.9709 24.5 24.4251 24.5 23.3333C24.5 22.2416 24.5 21.6957 24.3361 21.2615C24.0887 20.6062 23.583 20.0881 22.9433 19.8346C22.5195 19.6667 21.9867 19.6667 20.9211 19.6667H17.43C16.8089 19.6667 16.4985 19.6667 16.2077 19.7411C15.95 19.8071 15.7045 19.9158 15.4811 20.063Z" fill="#FF8C20"/>
</g>
<defs>
<clipPath id="clip0_21952_67">
<rect width="32" height="32" fill="white"/>
</clipPath>
</defs>
</svg>
