<svg width="24" height="24" viewBox="0 0 24 24" fill="none" xmlns="http://www.w3.org/2000/svg">
<path d="M21 4.41406L4.41406 21L3 19.5859L19.5859 3L21 4.41406ZM17 13C19.2091 13 21 14.7909 21 17C21 19.2091 19.2091 21 17 21C14.7909 21 13 19.2091 13 17C13 14.7909 14.7909 13 17 13ZM17 15C15.8954 15 15 15.8954 15 17C15 18.1046 15.8954 19 17 19C18.1046 19 19 18.1046 19 17C19 15.8954 18.1046 15 17 15ZM7 3C9.20914 3 11 4.79086 11 7C11 9.20914 9.20914 11 7 11C4.79086 11 3 9.20914 3 7C3 4.79086 4.79086 3 7 3ZM7 5C5.89543 5 5 5.89543 5 7C5 8.10457 5.89543 9 7 9C8.10457 9 9 8.10457 9 7C9 5.89543 8.10457 5 7 5Z" fill="#808085"/>
</svg>
