<svg width="32" height="32" viewBox="0 0 32 32" fill="none" xmlns="http://www.w3.org/2000/svg">
<rect width="32" height="32" fill="#FFE800"/>
<path d="M27.8392 15.6235L23.8537 10.2523C23.7499 10.1081 23.5417 10 23.3684 10H5V22H23.5766C23.7499 22 23.8882 21.9279 23.9921 21.7837L27.8741 16.5968C28.0474 16.3084 28.0474 15.9118 27.8392 15.6235ZM13.6989 19.8771H7.4606V12.0547H13.5605V14.0374H9.95608V14.9386H13.1446V16.8491H9.95608V17.8584H13.6989V19.8771ZM19.7295 19.8771L18.4472 17.7864L17.1646 19.8771H14.2881L16.9914 15.9479L14.3575 12.0908H17.1995L18.4817 14.0734L19.7295 12.0908H22.4672L19.8683 15.8758L22.6405 19.9132H19.7295V19.8771Z" fill="black"/>
</svg>
