<svg width="32" height="32" viewBox="0 0 32 32" fill="none" xmlns="http://www.w3.org/2000/svg">
<rect width="32" height="32" fill="black"/>
<g clip-path="url(#clip0_12125_22770)">
<rect width="32" height="32" fill="black"/>
<path d="M22.4473 6.42368L17.991 13.037C17.6829 13.4874 18.2755 14.0326 18.7021 13.6533L23.0873 9.83702C23.2058 9.7422 23.3718 9.81331 23.3718 9.97924V21.9022C23.3718 22.0681 23.1584 22.1392 23.0636 22.0207L9.78955 6.13924C9.36288 5.61776 8.74659 5.33331 8.05918 5.33331H7.5851C6.35251 5.33331 5.33325 6.35257 5.33325 7.60887V24.3911C5.33325 25.6474 6.35251 26.6666 7.60881 26.6666C8.39103 26.6666 9.12584 26.2637 9.55251 25.5763L14.0088 18.9629C14.317 18.5126 13.7244 17.9674 13.2977 18.3466L8.91251 22.1392C8.79399 22.2341 8.62807 22.1629 8.62807 21.997V10.0978C8.62807 9.93183 8.8414 9.86072 8.93622 9.97924L22.2103 25.8607C22.637 26.3822 23.277 26.6666 23.9407 26.6666H24.4147C25.671 26.6666 26.6903 25.6474 26.6903 24.3911V7.60887C26.6666 6.35257 25.6473 5.33331 24.391 5.33331C23.6088 5.33331 22.874 5.73628 22.4473 6.42368Z" fill="white"/>
</g>
<defs>
<clipPath id="clip0_12125_22770">
<rect width="32" height="32" fill="white"/>
</clipPath>
</defs>
</svg>
