<svg width="32" height="32" viewBox="0 0 32 32" fill="none" xmlns="http://www.w3.org/2000/svg">
<rect width="32" height="32" fill="#181A1F"/>
<path d="M5 15.9919C5 9.92126 9.92487 5 16.0001 5H22.6643C24.1285 5 24.8673 6.76384 23.8397 7.80599L17.3939 14.3431H18.0918C18.5757 14.3431 18.6642 15.032 18.1961 15.1542L12.2138 16.7156C11.8091 16.8212 11.5222 16.3274 11.8145 16.0286L17.2275 10.496H16.0001C12.9625 10.496 10.5 12.9566 10.5 15.9919C10.5 17.4259 11.0496 18.7316 11.9498 19.7102L8.06974 23.6094C6.16866 21.6337 5 18.9492 5 15.9919Z" fill="url(#paint0_linear_24568_67106)"/>
<path d="M27.0001 15.9919C27.0001 22.0626 22.0752 26.9838 16.0001 26.9838H9.37715C7.90716 26.9838 7.17103 25.2078 8.21047 24.1691L14.4687 17.9155H13.7709C13.287 17.9155 13.1984 17.2266 13.6666 17.1045L19.619 15.5508C20.0258 15.4446 20.3122 15.9435 20.0151 16.2408L14.7726 21.4879H16.0001C19.0377 21.4879 21.5001 19.0272 21.5001 15.9919C21.5001 14.5579 20.9505 13.2523 20.0504 12.2736L23.9305 8.37445C25.8314 10.3502 27.0001 13.0347 27.0001 15.9919Z" fill="url(#paint1_linear_24568_67106)"/>
<path d="M22.6642 5H18.2686C13.4464 5 9.53735 8.90625 9.53735 13.7249C9.53735 16.0504 10.4479 18.1636 11.9323 19.7276L11.9496 19.7102C11.0494 18.7316 10.4998 17.4259 10.4998 15.9919C10.4998 12.9566 12.9623 10.496 15.9998 10.496H17.2274L11.8144 16.0286C11.522 16.3274 11.809 16.8212 12.2136 16.7156L18.1958 15.1542C18.664 15.032 18.5755 14.3431 18.0917 14.3431H17.3937L23.8394 7.806C24.867 6.76384 24.1282 5 22.6642 5Z" fill="url(#paint2_linear_24568_67106)" fill-opacity="0.3"/>
<path d="M13.7616 27H9.40334C7.93334 27 7.19713 25.224 8.23657 24.1853L14.4949 17.9317H13.797C13.3131 17.9317 13.2246 17.2428 13.6927 17.1206L19.6451 15.567C20.052 15.4608 20.3384 15.9598 20.0412 16.2571L14.7987 21.504H16.0262C19.0638 21.504 21.5262 19.0434 21.5262 16.0081C21.5262 14.5741 20.9766 13.2685 20.0765 12.2898L20.0842 12.2822C21.5631 13.8452 22.47 15.9544 22.47 18.2752C22.47 23.0862 18.5732 26.9877 13.7616 27Z" fill="url(#paint3_linear_24568_67106)" fill-opacity="0.3"/>
<defs>
<linearGradient id="paint0_linear_24568_67106" x1="15.8626" y1="5" x2="15.8626" y2="20.0452" gradientUnits="userSpaceOnUse">
<stop stop-color="#11DA83"/>
<stop offset="1" stop-color="#1FA473"/>
</linearGradient>
<linearGradient id="paint1_linear_24568_67106" x1="19.1438" y1="26.9233" x2="19.1438" y2="12.2216" gradientUnits="userSpaceOnUse">
<stop stop-color="#DEE5EB"/>
<stop offset="1" stop-color="#CFD8EE"/>
</linearGradient>
<linearGradient id="paint2_linear_24568_67106" x1="18.8874" y1="17.9155" x2="14.078" y2="13.6526" gradientUnits="userSpaceOnUse">
<stop stop-color="#12D883"/>
<stop offset="1" stop-color="#177D63"/>
</linearGradient>
<linearGradient id="paint3_linear_24568_67106" x1="12.1009" y1="18.4275" x2="15.5167" y2="21.2843" gradientUnits="userSpaceOnUse">
<stop stop-color="#D0DBE8"/>
<stop offset="1" stop-color="#8C95A3"/>
</linearGradient>
</defs>
</svg>
