<svg width="24" height="24" viewBox="0 0 24 24" fill="none" xmlns="http://www.w3.org/2000/svg">
<path d="M8.71582 14.2832C9.43848 15.3207 10.6397 16 12 16C13.4804 16 14.7722 15.1954 15.4639 14L21.7998 14C20.8733 18.5645 16.8379 22 12 22C8.98387 22 6.27985 20.6644 4.44629 18.5527L2 21L2 12L11 12L8.71582 14.2832ZM12 2C15.0158 2 17.7173 3.33703 19.5508 5.44824L22 3V12L13 12L15.2832 9.71582C14.5605 8.67892 13.3598 8 12 8C10.5196 8 9.22781 8.80464 8.53613 10L2.2002 10C3.12675 5.43553 7.1621 2 12 2Z" fill="#808085"/>
</svg>
