<svg width="24" height="24" viewBox="0 0 24 24" fill="none" xmlns="http://www.w3.org/2000/svg">
<path fill-rule="evenodd" clip-rule="evenodd" d="M16.6074 3C17.9879 2.99831 19.3696 3.53518 20.4229 4.61036C21.4717 5.68119 21.9974 7.08389 22 8.48731C22.0027 9.89787 21.477 11.3095 20.4229 12.3857L12 21L3.57716 12.3857C2.523 11.3095 1.99735 9.89786 2.00001 8.48731C2.00267 7.08389 2.52835 5.68119 3.57716 4.61036C4.63042 3.53517 6.01213 2.99831 7.39259 3C8.76844 3.0018 10.1436 3.53871 11.1934 4.61036L12 5.44922L12.8067 4.61036C13.8564 3.53871 15.2316 3.00181 16.6074 3Z" fill="#808085"/>
</svg>
