<svg width="73" height="73" viewBox="0 0 73 73" fill="none" xmlns="http://www.w3.org/2000/svg">
<path d="M11.2308 71.54L2.80769 62.78L61.7692 1.46L70.1923 10.3173L11.2308 71.54ZM56.1538 73C53.0654 73 50.2421 72.2213 47.684 70.664C45.1571 69.0742 43.1293 66.9653 41.6006 64.3373C40.072 61.6769 39.3077 58.7244 39.3077 55.48C39.3077 52.3004 40.0876 49.3804 41.6474 46.72C43.2073 44.0596 45.2662 41.9344 47.8244 40.3447C50.3825 38.7549 53.159 37.96 56.1538 37.96C59.2423 37.96 62.0656 38.7549 64.6237 40.3447C67.1818 41.902 69.2096 44.0109 70.7071 46.6713C72.2357 49.2993 73 52.2356 73 55.48C73 58.7244 72.2357 61.6769 70.7071 64.3373C69.2096 66.9653 67.1818 69.0742 64.6237 70.664C62.0656 72.2213 59.2423 73 56.1538 73ZM56.1538 61.8067C57.2457 61.8067 58.244 61.5147 59.1487 60.9307C60.0846 60.3467 60.8333 59.5842 61.3949 58.6433C61.9564 57.67 62.2372 56.6156 62.2372 55.48C62.2372 54.3444 61.9564 53.3062 61.3949 52.3653C60.8333 51.392 60.0846 50.6133 59.1487 50.0293C58.244 49.4453 57.2457 49.1533 56.1538 49.1533C55.062 49.1533 54.0481 49.4453 53.1122 50.0293C52.2075 50.6133 51.4744 51.392 50.9128 52.3653C50.3513 53.3062 50.0705 54.3444 50.0705 55.48C50.0705 56.6156 50.3513 57.67 50.9128 58.6433C51.4744 59.5842 52.2075 60.3467 53.1122 60.9307C54.0481 61.5147 55.062 61.8067 56.1538 61.8067ZM16.8462 35.04C13.7577 35.04 10.9344 34.2613 8.37628 32.704C5.81816 31.1142 3.77479 29.0053 2.24615 26.3773C0.748718 23.7169 0 20.7644 0 17.52C0 14.3404 0.779914 11.4204 2.33974 8.76C3.89957 6.09955 5.95855 3.97444 8.51667 2.38466C11.0748 0.794887 13.8513 0 16.8462 0C19.9346 0 22.7423 0.794887 25.2692 2.38466C27.8274 3.942 29.8707 6.05089 31.3994 8.71133C32.928 11.3393 33.6923 14.2756 33.6923 17.52C33.6923 20.7644 32.928 23.7169 31.3994 26.3773C29.8707 29.0053 27.8274 31.1142 25.2692 32.704C22.7423 34.2613 19.9346 35.04 16.8462 35.04ZM16.8462 23.8467C17.938 23.8467 18.9363 23.5547 19.841 22.9707C20.7769 22.3867 21.5256 21.6242 22.0872 20.6833C22.6487 19.71 22.9295 18.6556 22.9295 17.52C22.9295 16.3844 22.6487 15.3462 22.0872 14.4053C21.5256 13.432 20.7769 12.6533 19.841 12.0693C18.9363 11.4853 17.938 11.1933 16.8462 11.1933C15.7543 11.1933 14.7404 11.4853 13.8045 12.0693C12.8998 12.6533 12.1667 13.432 11.6051 14.4053C11.0436 15.3462 10.7628 16.3844 10.7628 17.52C10.7628 18.6556 11.0436 19.71 11.6051 20.6833C12.1667 21.6242 12.8998 22.3867 13.8045 22.9707C14.7404 23.5547 15.7543 23.8467 16.8462 23.8467Z" fill="url(#paint0_linear_11259_18949)"/>
<defs>
<linearGradient id="paint0_linear_11259_18949" x1="32.2558" y1="78.093" x2="37.3488" y2="15.2791" gradientUnits="userSpaceOnUse">
<stop stop-color="#D95A00"/>
<stop offset="1" stop-color="#FED301"/>
</linearGradient>
</defs>
</svg>
